HIERARCHY
ROOT pelvis
{
  OFFSET 0 100 0
  CHANNELS 6 Xposition Yposition Zposition Zrotation Xrotation Yrotation
  JOINT pelvis_right_femur
  {
    OFFSET -10.78128 -3.44521 -0.5502486
    CHANNELS 3 Zrotation Xrotation Yrotation
    JOINT right_femur_tibia
    {
      OFFSET -0.8047443 -44.0398 -0.1307829
      CHANNELS 3 Zrotation Xrotation Yrotation
      JOINT right_tibia_foot
      {
        OFFSET 3.006224 -47.83518 -5
        CHANNELS 3 Zrotation Xrotation Yrotation
        End Site
        {
          OFFSET 0 -5 15
        }
      }
    }
  }
  JOINT pelvis_left_femur
  {
    OFFSET 10.78128 -3.44521 -0.5502486
    CHANNELS 3 Zrotation Xrotation Yrotation
    JOINT left_femur_tibia
    {
      OFFSET 0.8047443 -44.0398 -0.1307829
      CHANNELS 3 Zrotation Xrotation Yrotation
      JOINT left_tibia_foot
      {
        OFFSET -4.370144 -48.10324 -4.275266
        CHANNELS 3 Zrotation Xrotation Yrotation
        End Site
        {
          OFFSET 0 -5 15
        }
      }
    }
  }
  JOINT pelvis_spine1
  {
    OFFSET 0 6.468898 -3.129235
    CHANNELS 3 Zrotation Xrotation Yrotation
    JOINT spine1
    {
      OFFSET 0 23.15396 4.99043
      CHANNELS 3 Zrotation Xrotation Yrotation
      JOINT spine2
      {
        OFFSET 0 20.79997 -5.064912
        CHANNELS 3 Zrotation Xrotation Yrotation
        JOINT neck
        {
          OFFSET 0 14.38658 9.616178
          CHANNELS 3 Zrotation Xrotation Yrotation
          End Site
          {
            OFFSET 0 20 0
          }
        }
      }
      JOINT right_manubrium
      {
        OFFSET -5.722621 16.35077 3.967754
        CHANNELS 3 Zrotation Xrotation Yrotation
        JOINT right_clavicle
        {
          OFFSET -13.16364 1.694482 -4.693211
          CHANNELS 3 Zrotation Xrotation Yrotation
          JOINT right_humerus
          {
            OFFSET -28.5034 -0.3100689 -2.792744
            CHANNELS 3 Zrotation Xrotation Yrotation
            JOINT right_radius
            {
              OFFSET -25.15693 0.02248979 -1.271978
              CHANNELS 3 Zrotation Xrotation Yrotation
              End Site
              {
                OFFSET -15 0 0
              }
            }
          }
        }
      }
      JOINT left_manubrium
      {
        OFFSET 5.722621 16.35077 3.967754
        CHANNELS 3 Zrotation Xrotation Yrotation
        JOINT left_clavicle
        {
          OFFSET 13.16364 1.694482 -4.693211
          CHANNELS 3 Zrotation Xrotation Yrotation
          JOINT left_humerus
          {
            OFFSET 29.39168 -1.063119 -2.237045
            CHANNELS 3 Zrotation Xrotation Yrotation
            JOINT left_radius
            {
              OFFSET 24.59957 -0.9528479 0.9047498
              CHANNELS 3 Zrotation Xrotation Yrotation
              End Site
              {
                OFFSET 15 -0 -0
              }
            }
          }
        }
      }
    }
  }
}
MOTION
Frames: 15
Frame Time: 0.0416666666667
1868.373 98.70625 2361.48 9.371898 -1.643123 71.64409 2.588057 15.26057 5.433725 -0 19.93113 -0 4.276354 -12.20318 -4.461482 -0.4733928 -19.95134 -4.354819 -0 28.76515 -0 -8.163203 -9.764149 21.19705 -1.94253 0.1002331 8.526263 -1.157663 10.91647 -4.040813 1.587531 21.22087 7.067785 2.949003 -17.34003 7.883695 3.043398 -20.64975 11.94872 81.71424 28.89276 -10.1116 -0 0 21.85168 -30.91741 17.55129 15.55405 4.252711 -16.9235 -3.569691 -90.91205 22.17726 23.82129 0 0 -15.11234 -1.832799 5.495185 16.26586
1875.291 98.25307 2362.88 8.565323 -1.218435 71.22176 1.682622 16.45853 5.798269 -0 24.89287 -0 5.022725 -10.94985 -3.895966 -1.029376 -20.9806 -4.742563 -0 25.44872 -0 -7.582285 -9.644262 20.72361 -1.956222 0.11326 8.832646 -1.353206 10.73097 -3.656 1.660145 21.26613 7.171326 2.876715 -17.24439 8.137108 2.930433 -20.97593 11.90473 80.98533 28.70417 -9.033116 -0 0 22.7994 -31.58864 17.85281 15.90483 4.147733 -16.38488 -3.483328 -91.38216 22.18969 24.77144 0 0 -14.51508 -2.103494 5.542686 16.5841
1882.474 98.18857 2364.194 8.277244 -0.7175494 71.11545 0.7634548 16.20531 6.301634 -0 32.26944 -0 6.049557 -8.361586 -3.984302 -2.141968 -20.07522 -5.405509 -0 24.50597 -0 -6.968614 -9.743236 19.83044 -1.921588 0.1568837 8.855052 -1.437322 10.65018 -3.536208 1.72878 21.30286 7.249379 2.821081 -17.11647 8.341455 2.900557 -20.9322 11.86889 80.90263 28.51374 -8.873007 -0 0 23.01328 -31.90442 18.20393 15.96278 4.136804 -16.18892 -3.521158 -91.43049 22.20461 24.82138 0 0 -14.36726 -2.264646 5.655802 16.73596
1889.718 98.69191 2365.394 8.507698 -0.3143297 71.45301 0.1316794 14.04025 6.57706 -0 41.68039 -0 7.037246 -5.435581 -4.743235 -3.546274 -17.06417 -6.285168 -0 24.97528 -0 -6.491186 -10.22537 18.56474 -1.853317 0.2219667 8.596051 -1.418598 10.66991 -3.670491 1.795547 21.34538 7.305815 2.778121 -16.94443 8.506187 2.953912 -20.52498 11.83893 81.43452 28.37925 -9.580928 -0 0 22.49442 -31.93299 18.63575 15.76833 4.213774 -16.33314 -3.679239 -91.04834 22.23064 23.97259 0 0 -14.65963 -2.31674 5.869665 16.72556
1896.665 99.76145 2366.44 8.905916 -0.1648302 72.29953 -0.04401662 9.747735 6.230011 -0 51.25638 -0 7.335692 -3.931444 -5.781309 -4.849965 -12.32164 -7.39434 -0 25.12361 -0 -6.355696 -11.17364 17.17041 -1.767078 0.2934024 8.087465 -1.316996 10.73775 -4.005295 1.867631 21.40717 7.357559 2.73241 -16.7238 8.673956 3.057891 -19.79819 11.79456 82.46284 28.31354 -10.96762 -0 0 21.3549 -31.76784 19.18249 15.38977 4.37352 -16.75257 -3.928135 -90.27352 22.26121 22.31643 0 0 -15.35568 -2.255781 6.222843 16.54224
1903.018 101.0931 2367.332 9.144551 -0.295829 73.55885 0.0413423 3.822327 5.309379 -0 57.59208 -0 6.514402 -4.544448 -6.733464 -5.670275 -6.76871 -8.582547 -0 23.67829 -0 -6.416061 -12.50109 16.18314 -1.681908 0.3522798 7.380461 -1.16074 10.77428 -4.457963 1.952738 21.50465 7.430578 2.663656 -16.45879 8.905018 3.166095 -18.82042 11.70743 83.80899 28.33711 -12.74755 -0 0 19.76855 -31.5262 19.88281 14.92503 4.609676 -17.34724 -4.218662 -89.18116 22.28062 20.01383 0 0 -16.38868 -2.069876 6.768608 16.16372
1908.805 102.2111 2368.147 9.171286 -0.5376281 74.98201 0.08601214 -2.718079 4.336998 -0 57.89394 -0 5.054211 -5.793476 -7.637908 -5.861705 -1.363901 -9.321733 -0 20.8761 -0 -6.105232 -13.91856 15.8651 -1.620882 0.3782908 6.531643 -0.9748268 10.71147 -4.947363 2.049923 21.65309 7.550542 2.560293 -16.17081 9.243323 3.243205 -17.67196 11.55788 85.28963 28.52395 -14.63028 -0 0 17.89677 -31.32414 20.76055 14.4898 4.914935 -18.03126 -4.49388 -87.86719 22.26767 17.26073 0 0 -17.67842 -1.732012 7.560675 15.56187
1914.313 102.7744 2368.987 9.034116 -0.665536 76.32736 0.01962763 -8.959645 3.569651 -0 52.48876 -0 3.752354 -6.195556 -8.487974 -5.65828 3.431597 -9.332011 -0 17.90211 -0 -5.385547 -15.27227 15.78319 -1.601628 0.354987 5.587257 -0.7672334 10.52214 -5.430115 2.146477 21.85129 7.71953 2.425714 -15.89556 9.678495 3.267232 -16.42779 11.34223 86.79648 28.92578 -16.44261 -0 0 15.84751 -31.18372 21.76123 14.15152 5.290027 -18.7683 -4.710066 -86.42153 22.19858 14.22429 0 0 -19.16707 -1.203928 8.587572 14.70706
1919.813 102.6978 2369.915 8.725789 -0.5894244 77.48339 -0.1186811 -14.37998 2.878597 -0 44.07781 -0 2.901997 -5.970787 -9.122153 -5.401649 7.552323 -8.951732 -0 15.63536 -0 -4.841451 -16.63102 15.43182 -1.630664 0.2749553 4.589787 -0.5339368 10.21352 -5.897813 2.226399 22.07763 7.906671 2.270153 -15.66584 10.1499 3.218291 -15.15838 11.06856 88.28652 29.49237 -18.12686 -0 0 13.71556 -31.00692 22.73488 13.89135 5.736479 -19.54714 -4.846697 -84.91848 22.05906 11.03653 0 0 -20.82175 -0.462006 9.739077 13.58685
1925.461 102.0562 2370.953 8.260264 -0.3459103 78.44768 -0.2924274 -18.76456 2.217864 -0 35.11679 -0 2.440715 -5.783211 -9.522677 -5.248475 11.0566 -8.575963 -0 14.3824 -0 -4.814398 -17.978 14.74576 -1.703769 0.1433798 3.602909 -0.2749555 9.818288 -6.349514 2.277367 22.29602 8.064943 2.107337 -15.50442 10.57569 3.086757 -13.95184 10.75947 89.70634 30.10091 -19.65223 -0 0 11.64069 -30.66268 23.4959 13.64261 6.233479 -20.33961 -4.902229 -83.43932 21.8546 7.870458 0 0 -22.59044 0.4654608 10.83486 12.24852
1931.343 100.9943 2372.112 7.710759 -0.02222027 79.26131 -0.427551 -22.02033 1.683844 -0 26.98552 -0 2.20701 -5.827273 -9.76895 -5.182078 14.03756 -8.361971 -0 14.2434 -0 -5.290695 -19.1298 13.89694 -1.804186 -0.02137987 2.71701 6.230075e-05 9.401462 -6.783454 2.291587 22.46053 8.151949 1.95949 -15.42638 10.87196 2.890861 -12.92 10.45767 90.97048 30.6117 -20.99 -0 0 9.803434 -30.07366 23.89205 13.34111 6.728821 -21.09588 -4.892486 -82.08484 21.61187 4.97727 0 0 -24.3726 1.471925 11.67131 10.83605
1937.497 99.70017 2373.41 7.190885 0.2615934 79.96632 -0.3885517 -24.04667 1.425737 -0 20.59307 -0 1.97925 -6.049148 -9.93217 -5.100481 16.54735 -8.344182 -0 15.34169 -0 -6.159186 -19.81349 13.0828 -1.902957 -0.191761 2.029547 0.2739935 9.05598 -7.198175 2.265961 22.52494 8.145172 1.857163 -15.43906 10.97105 2.679119 -12.17664 10.21925 91.98898 30.90331 -22.12802 -0 0 8.378067 -29.25817 23.8537 12.95811 7.152155 -21.76129 -4.848725 -80.96615 21.37304 2.647814 0 0 -26.02077 2.382659 12.08028 9.579909
1943.93 98.3982 2374.864 6.846042 0.3648272 80.57674 -0.008869321 -24.74081 1.586138 -0 16.65487 -0 1.535946 -6.37318 -10.06526 -4.876951 18.5508 -8.501042 -0 17.85265 -0 -7.268659 -19.74242 12.50273 -1.967113 -0.3369961 1.619209 0.5245745 8.877211 -7.584707 2.202386 22.46017 8.050655 1.830675 -15.54138 10.84349 2.515554 -11.80565 10.09671 92.69256 30.90831 -23.05929 -0 0 7.48742 -28.33238 23.41785 12.51814 7.437592 -22.28824 -4.807752 -80.1929 21.18464 1.149353 0 0 -27.3548 3.011829 11.9882 8.728069
1950.616 97.32622 2376.486 6.82473 0.1846817 81.0596 0.810048 -24.09019 2.201009 -0 15.43599 -0 0.7932506 -6.71256 -10.20092 -4.445145 19.91112 -8.723947 -0 21.93838 -0 -8.364075 -18.72546 12.35637 -1.973423 -0.4305505 1.522006 0.7302411 8.926854 -7.921496 2.1064 22.26807 7.897027 1.897949 -15.72653 10.5062 2.454087 -11.83281 10.12032 93.04959 30.64163 -23.76387 -0 0 7.16976 -27.45176 22.70097 12.08417 7.545992 -22.64604 -4.796757 -79.84941 21.08148 0.6476665 0 0 -28.20817 3.247901 11.43561 8.438641
1957.503 96.69023 2378.256 7.229864 -0.2665398 81.34143 1.986945 -22.22795 3.12608 -0 16.45411 -0 -0.09495004 -6.952454 -10.33591 -3.880187 20.39178 -8.822172 -0 27.61087 -0 -9.112045 -16.80775 12.78469 -1.919497 -0.4566113 1.718708 0.8768665 9.201982 -8.177877 1.986641 21.98394 7.716131 2.05336 -15.98304 10.01324 2.513142 -12.21351 10.2844 93.06909 30.1942 -24.20116 -0 0 7.372402 -26.72146 21.82983 11.7179 7.476068 -22.82321 -4.819945 -79.9611 21.07486 1.139834 0 0 -28.48841 3.108155 10.54921 8.700709
